# xmcd
#
# Track frame offsets:
#	150
#	10224
#	25090
#	40447
#	53341
#	71720
#	83318
#	94566
#	107792
#	121235
#	135119
#	149387
#
# Disc length: 2221 seconds
#
# Revision: 1
# Processed by: cddbd v1.4PL0 Copyright (c) Steve Scherf et al.
# Submitted via: audiograbber 1.81.03
#
DISCID=8b08ab0c
DTITLE=El Potro De Sinaloa - Pobre De Mi Corazon
DYEAR=2001
DGENRE=Latin
TTITLE0=Con Que Me Pagas
TTITLE1=Gallito Jugado
TTITLE2=Pobre De Mi Corazon
TTITLE3=Manuel Carrillo
TTITLE4=Que Bueno Fuera
TTITLE5=Lobo Marino
TTITLE6=Porque No Vienes
TTITLE7=Rancho El Pino
TTITLE8=La Que Se Fue
TTITLE9=El Testamento
TTITLE10=El Pocho Sin
TTITLE11=Juan Murillo
EXTD=Carlos_Mp3s
EXTT0=
EXTT1=
EXTT2=
EXTT3=
EXTT4=
EXTT5=
EXTT6=
EXTT7=
EXTT8=
EXTT9=
EXTT10=
EXTT11=
PLAYORDER=
